<svg width="360" height="39" viewBox="0 0 360 39" fill="none" xmlns="http://www.w3.org/2000/svg">
<path d="M0.213 30L10.462 4.1H15.79L25.965 30H19.601L14.717 16.865C14.5197 16.347 14.3223 15.792 14.125 15.2C13.9277 14.608 13.7303 14.0037 13.533 13.387C13.3357 12.7457 13.1383 12.129 12.941 11.537C12.7683 10.9203 12.6203 10.353 12.497 9.835L13.607 9.798C13.459 10.4147 13.2863 11.019 13.089 11.611C12.9163 12.203 12.7313 12.795 12.534 13.387C12.3613 13.9543 12.164 14.534 11.942 15.126C11.72 15.6933 11.5103 16.2853 11.313 16.902L6.429 30H0.213ZM5.097 25.042L7.058 20.306H18.972L20.896 25.042H5.097ZM35.2818 30.407C33.5798 30.407 32.0628 29.9753 30.7308 29.112C29.4234 28.224 28.3874 27.0153 27.6228 25.486C26.8581 23.932 26.4758 22.1683 26.4758 20.195C26.4758 18.2217 26.8581 16.4703 27.6228 14.941C28.3874 13.387 29.4358 12.166 30.7678 11.278C32.0998 10.39 33.6291 9.946 35.3558 9.946C36.2438 9.946 37.0948 10.0817 37.9088 10.353C38.7228 10.6243 39.4628 10.9943 40.1288 11.463C40.7948 11.9317 41.3374 12.4743 41.7568 13.091C42.1761 13.683 42.4228 14.2997 42.4968 14.941L41.0908 15.274V2.62H47.0478V30H41.5348L41.2018 25.523L42.3858 25.708C42.3118 26.3247 42.0651 26.9167 41.6458 27.484C41.2511 28.0513 40.7331 28.557 40.0918 29.001C39.4504 29.4203 38.7104 29.7533 37.8718 30C37.0578 30.2713 36.1944 30.407 35.2818 30.407ZM36.7988 25.486C37.7114 25.486 38.5008 25.264 39.1668 24.82C39.8328 24.376 40.3384 23.7593 40.6838 22.97C41.0538 22.1807 41.2388 21.2557 41.2388 20.195C41.2388 19.1097 41.0538 18.1723 40.6838 17.383C40.3384 16.5937 39.8328 15.977 39.1668 15.533C38.5008 15.089 37.7114 14.867 36.7988 14.867C35.8861 14.867 35.0968 15.089 34.4308 15.533C33.7894 15.977 33.2838 16.5937 32.9138 17.383C32.5438 18.1723 32.3588 19.1097 32.3588 20.195C32.3588 21.2557 32.5438 22.1807 32.9138 22.97C33.2838 23.7593 33.7894 24.376 34.4308 24.82C35.0968 25.264 35.8861 25.486 36.7988 25.486ZM58.0848 30L49.8708 10.353H56.4198L61.3038 25.042L59.8608 25.19L64.8928 10.353H71.3678L62.7468 30H58.0848ZM74.7891 30V10.353H80.7091V30H74.7891ZM77.7491 6.468C76.6391 6.468 75.7634 6.209 75.1221 5.691C74.5054 5.14833 74.1971 4.38367 74.1971 3.397C74.1971 2.509 74.5178 1.78133 75.1591 1.214C75.8004 0.646665 76.6638 0.362998 77.7491 0.362998C78.8591 0.362998 79.7224 0.634331 80.3391 1.177C80.9558 1.695 81.2641 2.435 81.2641 3.397C81.2641 4.30967 80.9434 5.04967 80.3021 5.617C79.6854 6.18433 78.8344 6.468 77.7491 6.468ZM92.8945 30.37C90.9705 30.37 89.2685 30.0617 87.7885 29.445C86.3332 28.8283 85.1739 28.002 84.3105 26.966L87.8995 23.858C88.6642 24.6227 89.5275 25.19 90.4895 25.56C91.4515 25.9053 92.3642 26.078 93.2275 26.078C93.5729 26.078 93.8812 26.041 94.1525 25.967C94.4239 25.893 94.6459 25.7943 94.8185 25.671C95.0159 25.523 95.1639 25.3627 95.2625 25.19C95.3612 24.9927 95.4105 24.7707 95.4105 24.524C95.4105 24.0307 95.1885 23.6483 94.7445 23.377C94.5225 23.2537 94.1525 23.1057 93.6345 22.933C93.1165 22.7603 92.4505 22.563 91.6365 22.341C90.4772 22.045 89.4659 21.6997 88.6025 21.305C87.7639 20.8857 87.0732 20.4047 86.5305 19.862C86.0372 19.344 85.6549 18.7767 85.3835 18.16C85.1122 17.5187 84.9765 16.8033 84.9765 16.014C84.9765 15.1013 85.1862 14.275 85.6055 13.535C86.0495 12.795 86.6292 12.1537 87.3445 11.611C88.0845 11.0683 88.9232 10.6613 89.8605 10.39C90.8225 10.094 91.8092 9.946 92.8205 9.946C93.9059 9.946 94.9419 10.0693 95.9285 10.316C96.9152 10.5627 97.8279 10.908 98.6665 11.352C99.5299 11.796 100.295 12.3263 100.961 12.943L97.8525 16.421C97.4085 16.0017 96.9029 15.6317 96.3355 15.311C95.7929 14.9657 95.2255 14.6943 94.6335 14.497C94.0415 14.2997 93.4989 14.201 93.0055 14.201C92.6355 14.201 92.3025 14.238 92.0065 14.312C91.7352 14.3613 91.5009 14.46 91.3035 14.608C91.1062 14.7313 90.9582 14.8917 90.8595 15.089C90.7609 15.2617 90.7115 15.4713 90.7115 15.718C90.7115 15.9647 90.7732 16.199 90.8965 16.421C91.0445 16.643 91.2419 16.828 91.4885 16.976C91.7352 17.124 92.1299 17.2967 92.6725 17.494C93.2152 17.6667 93.9552 17.8887 94.8925 18.16C96.0519 18.4807 97.0509 18.8383 97.8895 19.233C98.7282 19.6277 99.3942 20.0963 99.8875 20.639C100.282 21.0583 100.578 21.5517 100.776 22.119C100.973 22.6617 101.072 23.2537 101.072 23.895C101.072 25.153 100.714 26.2753 99.9985 27.262C99.3079 28.224 98.3459 28.9887 97.1125 29.556C95.8792 30.0987 94.4732 30.37 92.8945 30.37ZM113.841 30.37C111.794 30.37 109.968 29.926 108.365 29.038C106.786 28.15 105.528 26.9413 104.591 25.412C103.678 23.8827 103.222 22.1313 103.222 20.158C103.222 18.1847 103.678 16.4333 104.591 14.904C105.528 13.3747 106.786 12.166 108.365 11.278C109.968 10.39 111.794 9.946 113.841 9.946C115.888 9.946 117.701 10.39 119.28 11.278C120.883 12.166 122.141 13.3747 123.054 14.904C123.967 16.4333 124.423 18.1847 124.423 20.158C124.423 22.1313 123.967 23.8827 123.054 25.412C122.141 26.9413 120.883 28.15 119.28 29.038C117.701 29.926 115.888 30.37 113.841 30.37ZM113.841 25.264C114.729 25.264 115.518 25.042 116.209 24.598C116.9 24.154 117.442 23.5497 117.837 22.785C118.232 22.0203 118.417 21.1447 118.392 20.158C118.417 19.1713 118.232 18.2957 117.837 17.531C117.442 16.7417 116.9 16.125 116.209 15.681C115.518 15.237 114.729 15.015 113.841 15.015C112.953 15.015 112.151 15.237 111.436 15.681C110.745 16.125 110.203 16.7417 109.808 17.531C109.413 18.2957 109.228 19.1713 109.253 20.158C109.228 21.1447 109.413 22.0203 109.808 22.785C110.203 23.5497 110.745 24.154 111.436 24.598C112.151 25.042 112.953 25.264 113.841 25.264ZM128.294 30V10.353H133.918L134.177 16.754L133.067 15.533C133.363 14.4723 133.844 13.5227 134.51 12.684C135.201 11.8453 136.002 11.1793 136.915 10.686C137.828 10.1927 138.802 9.946 139.838 9.946C140.282 9.946 140.689 9.983 141.059 10.057C141.454 10.131 141.811 10.2173 142.132 10.316L140.504 16.865C140.233 16.6923 139.863 16.5567 139.394 16.458C138.95 16.3347 138.481 16.273 137.988 16.273C137.445 16.273 136.94 16.3717 136.471 16.569C136.002 16.7417 135.608 17.0007 135.287 17.346C134.966 17.6913 134.707 18.0983 134.51 18.567C134.337 19.0357 134.251 19.566 134.251 20.158V30H128.294ZM147.611 38.51L152.088 27.965L152.162 30.999L142.69 10.353H149.387L153.531 20.232C153.753 20.7253 153.963 21.2557 154.16 21.823C154.357 22.3903 154.505 22.933 154.604 23.451L153.79 23.932C153.938 23.562 154.098 23.1057 154.271 22.563C154.468 21.9957 154.678 21.3913 154.9 20.75L158.526 10.353H165.26L156.898 30L153.494 38.51H147.611ZM192.323 30.37C190.374 30.37 188.573 30.0493 186.921 29.408C185.293 28.742 183.874 27.817 182.666 26.633C181.457 25.4243 180.52 24.006 179.854 22.378C179.212 20.7253 178.892 18.9123 178.892 16.939C178.892 15.015 179.237 13.239 179.928 11.611C180.618 9.983 181.568 8.577 182.777 7.393C184.01 6.18433 185.453 5.247 187.106 4.581C188.783 3.915 190.608 3.582 192.582 3.582C193.815 3.582 195.024 3.74233 196.208 4.063C197.392 4.38367 198.489 4.86467 199.501 5.506C200.537 6.12267 201.425 6.86267 202.165 7.726L198.317 12.129C197.799 11.5863 197.244 11.1177 196.652 10.723C196.084 10.3037 195.455 9.983 194.765 9.761C194.074 9.539 193.334 9.428 192.545 9.428C191.558 9.428 190.621 9.613 189.733 9.983C188.869 10.3283 188.105 10.834 187.439 11.5C186.797 12.1413 186.292 12.9307 185.922 13.868C185.552 14.8053 185.367 15.8537 185.367 17.013C185.367 18.1477 185.552 19.1837 185.922 20.121C186.292 21.0337 186.81 21.823 187.476 22.489C188.142 23.155 188.943 23.6607 189.881 24.006C190.843 24.3513 191.903 24.524 193.063 24.524C193.852 24.524 194.604 24.413 195.32 24.191C196.035 23.969 196.689 23.673 197.281 23.303C197.897 22.9083 198.44 22.4643 198.909 21.971L201.943 26.781C201.326 27.4717 200.5 28.0883 199.464 28.631C198.452 29.1737 197.318 29.6053 196.06 29.926C194.826 30.222 193.581 30.37 192.323 30.37ZM214.868 30.37C212.821 30.37 210.996 29.926 209.392 29.038C207.814 28.15 206.556 26.9413 205.618 25.412C204.706 23.8827 204.249 22.1313 204.249 20.158C204.249 18.1847 204.706 16.4333 205.618 14.904C206.556 13.3747 207.814 12.166 209.392 11.278C210.996 10.39 212.821 9.946 214.868 9.946C216.916 9.946 218.729 10.39 220.307 11.278C221.911 12.166 223.169 13.3747 224.081 14.904C224.994 16.4333 225.45 18.1847 225.45 20.158C225.45 22.1313 224.994 23.8827 224.081 25.412C223.169 26.9413 221.911 28.15 220.307 29.038C218.729 29.926 216.916 30.37 214.868 30.37ZM214.868 25.264C215.756 25.264 216.546 25.042 217.236 24.598C217.927 24.154 218.47 23.5497 218.864 22.785C219.259 22.0203 219.444 21.1447 219.419 20.158C219.444 19.1713 219.259 18.2957 218.864 17.531C218.47 16.7417 217.927 16.125 217.236 15.681C216.546 15.237 215.756 15.015 214.868 15.015C213.98 15.015 213.179 15.237 212.463 15.681C211.773 16.125 211.23 16.7417 210.835 17.531C210.441 18.2957 210.256 19.1713 210.28 20.158C210.256 21.1447 210.441 22.0203 210.835 22.785C211.23 23.5497 211.773 24.154 212.463 24.598C213.179 25.042 213.98 25.264 214.868 25.264ZM229.284 30V10.353H234.908L235.093 13.905L234.316 13.942C234.612 13.3007 234.982 12.7333 235.426 12.24C235.895 11.7467 236.413 11.3397 236.98 11.019C237.572 10.6737 238.177 10.4147 238.793 10.242C239.435 10.0693 240.076 9.983 240.717 9.983C241.679 9.983 242.555 10.131 243.344 10.427C244.134 10.723 244.824 11.204 245.416 11.87C246.008 12.5113 246.477 13.387 246.822 14.497L245.897 14.423L246.193 13.831C246.514 13.239 246.921 12.7087 247.414 12.24C247.932 11.7467 248.5 11.3397 249.116 11.019C249.733 10.6737 250.374 10.4147 251.04 10.242C251.706 10.0693 252.348 9.983 252.964 9.983C254.518 9.983 255.813 10.2913 256.849 10.908C257.885 11.5 258.662 12.4003 259.18 13.609C259.723 14.8177 259.994 16.2853 259.994 18.012V30H254.037V18.493C254.037 17.7037 253.926 17.05 253.704 16.532C253.482 16.014 253.149 15.6317 252.705 15.385C252.286 15.1137 251.756 14.978 251.114 14.978C250.596 14.978 250.115 15.0643 249.671 15.237C249.252 15.4097 248.882 15.644 248.561 15.94C248.265 16.236 248.031 16.5813 247.858 16.976C247.686 17.3707 247.599 17.8147 247.599 18.308V30H241.642V18.456C241.642 17.716 241.531 17.087 241.309 16.569C241.087 16.051 240.754 15.6563 240.31 15.385C239.866 15.1137 239.348 14.978 238.756 14.978C238.238 14.978 237.757 15.0643 237.313 15.237C236.894 15.4097 236.524 15.644 236.203 15.94C235.907 16.236 235.673 16.5813 235.5 16.976C235.328 17.3707 235.241 17.8023 235.241 18.271V30H229.284ZM264.875 30V10.353H270.499L270.684 13.905L269.907 13.942C270.203 13.3007 270.573 12.7333 271.017 12.24C271.486 11.7467 272.004 11.3397 272.571 11.019C273.163 10.6737 273.767 10.4147 274.384 10.242C275.025 10.0693 275.667 9.983 276.308 9.983C277.27 9.983 278.146 10.131 278.935 10.427C279.724 10.723 280.415 11.204 281.007 11.87C281.599 12.5113 282.068 13.387 282.413 14.497L281.488 14.423L281.784 13.831C282.105 13.239 282.512 12.7087 283.005 12.24C283.523 11.7467 284.09 11.3397 284.707 11.019C285.324 10.6737 285.965 10.4147 286.631 10.242C287.297 10.0693 287.938 9.983 288.555 9.983C290.109 9.983 291.404 10.2913 292.44 10.908C293.476 11.5 294.253 12.4003 294.771 13.609C295.314 14.8177 295.585 16.2853 295.585 18.012V30H289.628V18.493C289.628 17.7037 289.517 17.05 289.295 16.532C289.073 16.014 288.74 15.6317 288.296 15.385C287.877 15.1137 287.346 14.978 286.705 14.978C286.187 14.978 285.706 15.0643 285.262 15.237C284.843 15.4097 284.473 15.644 284.152 15.94C283.856 16.236 283.622 16.5813 283.449 16.976C283.276 17.3707 283.19 17.8147 283.19 18.308V30H277.233V18.456C277.233 17.716 277.122 17.087 276.9 16.569C276.678 16.051 276.345 15.6563 275.901 15.385C275.457 15.1137 274.939 14.978 274.347 14.978C273.829 14.978 273.348 15.0643 272.904 15.237C272.485 15.4097 272.115 15.644 271.794 15.94C271.498 16.236 271.264 16.5813 271.091 16.976C270.918 17.3707 270.832 17.8023 270.832 18.271V30H264.875ZM300.836 30V10.353H306.756V30H300.836ZM303.796 6.468C302.686 6.468 301.81 6.209 301.169 5.691C300.552 5.14833 300.244 4.38367 300.244 3.397C300.244 2.509 300.565 1.78133 301.206 1.214C301.847 0.646665 302.711 0.362998 303.796 0.362998C304.906 0.362998 305.769 0.634331 306.386 1.177C307.003 1.695 307.311 2.435 307.311 3.397C307.311 4.30967 306.99 5.04967 306.349 5.617C305.732 6.18433 304.881 6.468 303.796 6.468ZM313.946 30V5.395H319.866V30H313.946ZM310.468 15.533V10.353H323.677V15.533H310.468ZM328.689 30V5.395H334.609V30H328.689ZM325.211 15.533V10.353H338.42V15.533H325.211ZM350.983 30.37C348.812 30.37 346.925 29.9383 345.322 29.075C343.719 28.187 342.473 26.9907 341.585 25.486C340.697 23.9567 340.253 22.2177 340.253 20.269C340.253 18.7643 340.5 17.383 340.993 16.125C341.486 14.867 342.177 13.7817 343.065 12.869C343.953 11.9317 345.001 11.2163 346.21 10.723C347.443 10.205 348.788 9.946 350.243 9.946C351.624 9.946 352.882 10.1927 354.017 10.686C355.176 11.1793 356.175 11.87 357.014 12.758C357.853 13.646 358.494 14.6943 358.938 15.903C359.382 17.1117 359.579 18.4313 359.53 19.862L359.493 21.453H343.842L342.991 18.123H354.683L354.054 18.826V18.086C354.005 17.4693 353.807 16.9267 353.462 16.458C353.141 15.9647 352.71 15.5823 352.167 15.311C351.624 15.0397 351.008 14.904 350.317 14.904C349.355 14.904 348.529 15.1013 347.838 15.496C347.172 15.866 346.666 16.421 346.321 17.161C345.976 17.8763 345.803 18.7643 345.803 19.825C345.803 20.9103 346.025 21.86 346.469 22.674C346.938 23.4633 347.604 24.08 348.467 24.524C349.355 24.968 350.403 25.19 351.612 25.19C352.451 25.19 353.191 25.0667 353.832 24.82C354.498 24.5733 355.213 24.154 355.978 23.562L358.753 27.484C357.988 28.15 357.174 28.6927 356.311 29.112C355.448 29.5313 354.56 29.8397 353.647 30.037C352.759 30.259 351.871 30.37 350.983 30.37Z" fill="black"/>
</svg>
